# xmcd
#
# Track frame offsets: 
#        150
#        19818
#        35412
#        48032
#        63914
#        78890
#        94454
#        113617
#        129534
#        146154
#        165453
#        182444
#
# Disc length: 2657 seconds
#
# Revision: 0
# Processed by: cddbd v1.4PL0 Copyright (c) Steve Scherf et al.
# Submitted via: ExactAudioCopy v0.90b4
#
DISCID=930a5f0c
DTITLE=Jéro and Júnior - Esse É Meu Brasil
DYEAR=2000
DGENRE=Country
TTITLE0=Te Queria Tanto Aqui
TTITLE1=Coração Sem Juízo
TTITLE2=Arrasta Pé
TTITLE3=É Você Minha Vida
TTITLE4=Vai Acontecer
TTITLE5=Paixão Intensa
TTITLE6=Eras
TTITLE7=Rodeio
TTITLE8=Fascinação
TTITLE9=Não Mais Que Amanhã
TTITLE10=Guarânia Chora
TTITLE11=Esse É Meu Brasil (Brasil 2000)
EXTD=
EXTT0=
EXTT1=
EXTT2=
EXTT3=
EXTT4=
EXTT5=
EXTT6=
EXTT7=
EXTT8=
EXTT9=
EXTT10=
EXTT11=
PLAYORDER=
